<?xml version="1.0" encoding="utf-8"?>
<!-- Generator: Adobe Illustrator 21.1.0, SVG Export Plug-In . SVG Version: 6.00 Build 0)  -->
<svg version="1.1" xmlns="http://www.w3.org/2000/svg" xmlns:xlink="http://www.w3.org/1999/xlink" x="0px" y="0px"
	 viewBox="0 0 100 125" style="enable-background:new 0 0 100 125;" xml:space="preserve">
<style type="text/css">
	.st0{display:none;}
	.st1{display:inline;fill:#478E66;}
	.st2{fill:none;}
	.st3{fill:#FFFFFF;stroke:#000000;stroke-width:3;stroke-linecap:round;stroke-miterlimit:10;}
</style>
<g id="Layer_2" class="st0">
	<rect y="-1" class="st1" width="93.8" height="92.5"/>
</g>
<g id="Layer_1">
	<path d="M80.1,45.7c0.1-1.1-0.2-2.4-0.4-3.4c-0.2-1.3-0.5-2.6-0.9-3.9c-0.7-2.4-1.7-4.7-3-6.9C73.2,27,69.4,23.2,65,20.4
		c-8.8-5.5-20.1-6.4-29.7-2.3c-9.6,4.2-16.8,13-18.9,23.3c-1.8,9.1,0.5,18.6,6.1,25.9c5.5,7,13.8,11.6,22.6,12.4
		c9,0.8,18.1-2.3,24.7-8.5C76.8,64.7,80.6,55.3,80.1,45.7C80.1,45.7,80.1,46.4,80.1,45.7z M19,44c1.3-10.8,8.9-20.2,19.2-23.9
		c10-3.6,21.4-1.3,29.3,5.8c5.2,4.7,8.6,11.2,9.4,18.1c-9.9,0-19.8,0-29.7,0c-2.3,0-4.6,0-6.9,0c-0.7,0-1.9,0.3-2.3-0.3
		c-1.4-2.4-2.8-4.9-4.2-7.3c-0.5-0.9-1-2.2-2.3-2c-1,0.2-1.4,1.4-1.9,2.2c-1.4,2.4-2.8,4.9-4.2,7.3c-0.2,0.3-2.4,0.1-2.8,0.1
		C22.2,44.1,19,44.2,19,44C19.1,43.6,19,44.1,19,44z M48,76.8c-9,0-17.6-4.3-23.1-11.4c-2.7-3.5-4.6-7.6-5.5-12
		c-0.1-0.5-0.9-6.3-0.5-6.3c1.2,0,2.3,0,3.5,0c1.2,0,2.5,0,3.7,0c1.1,0,1.5-0.8,2-1.7c1.2-2.2,2.5-4.3,3.7-6.5
		c1.2,2.2,2.5,4.3,3.7,6.5c0.4,0.8,0.8,1.7,1.9,1.7c0.4,0,0.7,0,1.1,0c5,0,9.9,0,14.9,0c6.1,0,12.3,0,18.4,0c1.6,0,3.3,0,4.9,0
		c0.1,0,0.3,0,0.4,0c0.2,0,0.1,1.4,0.1,1.6C77,51,76.7,53.3,76,55.5C72.6,67.9,60.9,76.8,48,76.8z M37,54.9c0,1.9-1.5,3.4-3.4,3.4
		s-3.4-1.5-3.4-3.4c0-1.9,1.5-3.4,3.4-3.4C35.5,51.5,37,53,37,54.9z M65.7,54.9c0,1.9-1.5,3.4-3.4,3.4s-3.4-1.5-3.4-3.4
		c0-1.9,1.5-3.4,3.4-3.4S65.7,53,65.7,54.9z"/>
	<path class="st2" d="M31,62.5c0,6.1,11.3,11,25.2,11"/>
	<path class="st3" d="M58.7,68c-5.9,5.9-15.5,5.9-21.3,0.1"/>
</g>
</svg>
